<?xml version="1.0" standalone="no"?>
<!DOCTYPE svg PUBLIC "-//W3C//DTD SVG 1.1//EN" "http://www.w3.org/Graphics/SVG/1.1/DTD/svg11.dtd" >
<svg xmlns="http://www.w3.org/2000/svg">
<metadata></metadata>
<defs>
<font id="miriam_clmbold" horiz-adv-x="0" >
<font-face units-per-em="2048" ascent="1638" descent="-410" />
<missing-glyph horiz-adv-x="751" />
<glyph horiz-adv-x="1315" d="M113 -38v1203q0 56 23.5 79.5t81.5 23.5h879q58 0 81.5 -23.5t23.5 -79.5v-1203q0 -56 -23 -79.5t-82 -23.5h-879q-58 0 -81.5 23.5t-23.5 79.5zM254 19q0 -19 18 -19h771q19 0 19 19v1090q0 19 -19 18h-771q-19 0 -18 -18v-1090z" />
<glyph horiz-adv-x="1315" d="M113 -38v1203q0 56 23.5 79.5t81.5 23.5h879q58 0 81.5 -23.5t23.5 -79.5v-1203q0 -56 -23 -79.5t-82 -23.5h-879q-58 0 -81.5 23.5t-23.5 79.5zM254 19q0 -19 18 -19h771q19 0 19 19v1090q0 19 -19 18h-771q-19 0 -18 -18v-1090z" />
<glyph unicode="&#xd;" horiz-adv-x="682" />
<glyph unicode=" "  horiz-adv-x="751" />
<glyph unicode="&#x09;" horiz-adv-x="751" />
<glyph unicode="&#xa0;" horiz-adv-x="751" />
<glyph unicode="!" horiz-adv-x="548" d="M150 141q0 73 15 109q26 54 100 54q70 0 98 -54q17 -34 17 -109q0 -73 -17 -107q-28 -54 -98 -55q-73 0 -100 55q-15 36 -15 107zM167 566v582q0 39 17 56t56 17h51q39 0 56.5 -17t17.5 -56v-582q0 -39 -17 -56.5t-57 -17.5h-51q-39 0 -56 17t-17 57z" />
<glyph unicode="&#x22;" horiz-adv-x="945" d="M78 734.5q-10 20.5 5 52.5l150 344q19 45 44.5 64t70.5 19h94q96 0 45 -94l-192 -342q-21 -38 -39.5 -51t-50.5 -13h-79q-38 0 -48 20.5zM491 734.5q-10 20.5 5 52.5l150 344q19 45 44.5 64t70.5 19h94q96 0 45 -94l-192 -342q-21 -38 -39.5 -51t-50.5 -13h-79 q-38 0 -48 20.5z" />
<glyph unicode="#" horiz-adv-x="1185" d="M43 319l8 42q8 39 28 56q17 17 58 17h102q17 0 24.5 5.5t8.5 22.5l44 214q4 17 -2 23t-25 6h-101q-36 0 -53 16q-13 17 -5 57l5 41q8 39 28 57q17 17 61 16h101q17 0 23.5 6t10.5 23l22 133q8 41 25 56q23 17 60 17h47q41 0 53 -17q15 -19 9 -56l-23 -133q-4 -17 1 -23 t22 -6h154q17 0 23.5 6t10.5 23l22 133q8 41 25 56q23 17 60 17h47q41 0 53 -17q15 -19 9 -56l-23 -133q-4 -17 1 -23t22 -6h84q36 0 53 -16q13 -17 6 -57l-6 -41q-8 -39 -28 -57q-17 -17 -60 -16h-81q-17 0 -23.5 -6t-10.5 -23l-43 -214q-2 -17 2 -22.5t20 -5.5h85 q38 0 55 -17q13 -17 5 -56l-7 -42q-6 -39 -29 -56q-17 -17 -58 -17h-84q-17 0 -21.5 -4.5t-10.5 -23.5l-23 -145q-8 -41 -26 -56q-21 -17 -58 -17h-47q-41 0 -55 17q-13 19 -7 56l22 145q6 17 -0.5 22.5t-23.5 5.5h-154q-17 0 -22.5 -5.5t-9.5 -22.5l-23 -145 q-8 -41 -26 -56q-21 -17 -58 -17h-47q-41 0 -55 17q-13 19 -7 56l22 145q4 17 -1.5 22.5t-22.5 5.5h-102q-38 0 -54 17q-11 17 -6 56zM466 462q-2 -17 2 -22.5t21 -5.5h154q17 0 24 5.5t9 22.5l44 214q4 17 -1 23t-22 6h-158q-15 0 -20.5 -6t-9.5 -23z" />
<glyph unicode="$" horiz-adv-x="928" d="M66 797q0 -116 79 -190.5t197 -110.5q28 -8 59 -13.5t66 -9t46 -5.5q190 -32 190 -139q0 -77 -68.5 -114t-174.5 -37q-124 0 -214 79q-28 28 -52 29q-24 0 -53 -27l-36 -35q-28 -26 -29 -51t27 -53q130 -130 342 -129q207 0 325 103q111 92 111 240q0 116 -79 191.5 t-197 109.5q-23 6 -52 10.5t-65.5 10t-53.5 7.5q-190 32 -190 139q0 77 68.5 114t174.5 37q124 0 214 -79q28 -28 52 -28t53 26l36 36q28 26 29 50.5t-27 52.5q-130 130 -342 129q-205 0 -325 -103q-111 -92 -111 -240zM393 -21q0 -39 17 -56t56 -17h13q39 0 56 17t17 56 v1169q0 39 -16.5 56t-56.5 17h-13q-39 0 -56 -17t-17 -56v-1169z" />
<glyph unicode="%" horiz-adv-x="1072" d="M47 853q0 128 47 199q58 90 164.5 90t164.5 -90q47 -71 47 -199t-47 -199q-58 -90 -164.5 -90t-164.5 90q-47 71 -47 199zM111.5 70.5q-4.5 23.5 18.5 55.5l669 988q23 34 46 38t57 -17l41 -30q32 -21 37 -44.5t-16 -57.5l-671 -986q-23 -34 -46 -38.5t-55 17.5l-44 28 q-32 23 -36.5 46.5zM197 853q0 -56 15 -86q15 -38 46 -38t46 38q15 30 15 86t-15 86q-15 38 -46 38t-46 -38q-15 -30 -15 -86zM622 276q0 128 47 201q58 88 164 88.5t165 -88.5q47 -73 47 -201t-47 -201q-58 -88 -164.5 -88t-164.5 88q-47 73 -47 201zM772 276.5 q0 -56.5 15 -86.5q15 -38 46 -38t46 38q15 30 15 86.5t-15 86.5q-15 38 -46 37.5t-46 -37.5q-15 -30 -15 -86.5z" />
<glyph unicode="'" horiz-adv-x="529" d="M78 734.5q-10 20.5 5 52.5l150 344q19 45 44.5 64t70.5 19h94q96 0 45 -94l-192 -342q-21 -38 -39.5 -51t-50.5 -13h-79q-38 0 -48 20.5z" />
<glyph unicode="(" horiz-adv-x="576" d="M81 563.5q0 174.5 63 353t187 314.5q24 24 62 24h107q24 0 29 -13t-16 -40q-218 -287 -218 -638.5t218 -638.5q21 -26 16 -39.5t-29 -13.5h-107q-38 0 -62 25q-124 135 -187 313.5t-63 353z" />
<glyph unicode=")" horiz-adv-x="576" d="M66.5 1241.5q4.5 13.5 31.5 13.5h105q39 0 62 -24q124 -135 187 -314t63 -353.5t-63 -353t-187 -313.5q-23 -24 -62 -25h-105q-26 0 -31 13.5t16 39.5q218 287 218 638.5t-218 638.5q-21 26 -16.5 39.5z" />
<glyph unicode="*" horiz-adv-x="1010" d="M126 656q-11 19 2 56l13 45q11 38 34 47q19 11 54 -2l160 -50q30 -11 30 22v167q-2 36 17 55q17 17 54 17h51q38 0 53 -17q15 -15 15 -55v-169q0 -32 30 -20l161 50q36 13 57 2q21 -9 32 -47l15 -45q11 -38 0 -56q-9 -21 -45 -32l-162 -53q-28 -11 -11 -36l99 -135 q23 -32 19 -54q-4 -23 -36 -45l-37 -29q-32 -21 -53 -18q-23 4 -45 35l-99 138q-19 26 -36 0l-100 -138q-24 -32 -45 -35q-23 -2 -54 18l-38 29q-32 23 -34 45q-6 23 17 54l100 137q17 24 -13 34l-158 53q-36 11 -47 32z" />
<glyph unicode="+" horiz-adv-x="924" d="M103 543v51q0 39 17 56t57 17h169q17 0 22.5 5.5t5.5 22.5v169q0 39 17 56.5t56 17.5h51q39 0 56 -17t17 -57v-169q0 -17 5.5 -22.5t22.5 -5.5h168q39 0 56 -17t17 -56v-51q0 -39 -17 -56t-56 -17h-168q-17 0 -22.5 -6t-5.5 -22v-168q0 -39 -17 -56t-56 -17h-51 q-39 0 -56 17t-17 56v168q0 17 -5.5 22.5t-22.5 5.5h-169q-39 0 -56.5 17t-17.5 56z" />
<glyph unicode="," horiz-adv-x="588" d="M78 -159.5q-10 20.5 5 52.5l150 344q19 45 44.5 63.5t70.5 18.5h84q96 0 45 -94l-191 -341q-21 -38 -40 -51t-51 -13h-69q-38 0 -48 20.5z" />
<glyph unicode="-" horiz-adv-x="883" d="M103 571v51q0 39 17 56t57 17h548q39 0 56.5 -17t17.5 -56v-51q0 -39 -17.5 -56t-56.5 -17h-548q-39 0 -56.5 17t-17.5 56z" />
<glyph unicode="." horiz-adv-x="449" d="M75 142q0 76 17 108q28 54 104 54t107 -54q16 -32 16 -108t-16 -108q-30 -54 -106.5 -54.5t-104.5 54.5q-17 32 -17 108z" />
<glyph unicode="/" horiz-adv-x="695" d="M51.5 -72.5q-10.5 21.5 2.5 57.5l419 1219q13 36 34 47.5t59 -2.5l48 -16q38 -13 48.5 -35t-3.5 -59l-419 -1218q-11 -38 -32.5 -48t-59.5 3l-48 17q-38 13 -48.5 34.5z" />
<glyph unicode="0" horiz-adv-x="977" d="M94 563.5q0 253.5 90 400.5q54 86 137 132t177 46t176.5 -46t137.5 -132q90 -147 90 -400.5t-90 -400.5q-54 -86 -137 -132t-177 -46t-176.5 46t-137.5 132q-90 147 -90 400.5zM291 563.5q0 -174.5 47 -274.5q56 -116 159.5 -116t160.5 116q47 100 47 274.5t-47 274.5 q-56 116 -159.5 116t-160.5 -116q-47 -100 -47 -274.5z" />
<glyph unicode="1" horiz-adv-x="710" d="M56 761q0 24 29 54l276 284q26 28 75 28h51q39 0 56 -16.5t17 -56.5v-981q0 -39 -17 -56t-56 -17h-51q-39 0 -56 17t-17 56v688q0 21 -14 24q-15 4 -30 -11l-94 -98q-28 -28 -50 -28q-24 0 -55 25l-35 37q-28 28 -29 51z" />
<glyph unicode="2" horiz-adv-x="903" d="M96 73q0 60 28 111q43 81 109 158q68 75 172 158l104 84q64 56 91.5 100.5t27.5 108.5q0 70 -47 110t-121 40q-120 0 -169 -116q-15 -41 -32 -51q-21 -11 -58 -2l-49 13q-39 11 -51 32q-12 22 -1 58q90 263 370 263q162 0 265 -101q90 -92 90 -229q0 -86 -22.5 -151 t-75.5 -131q-26 -34 -61 -64t-87.5 -72.5t-71.5 -57.5q-77 -64 -112 -112q-8 -11 -6 -18t11 -7h355q39 0 56.5 -17t17.5 -56v-51q0 -39 -17 -56t-57 -17h-586q-39 0 -56 17t-17 56z" />
<glyph unicode="3" horiz-adv-x="1003" d="M85 174.5q0 24.5 28 52.5l35 36q28 28 53 28q19 0 51 -28q94 -86 225 -86q107 0 181.5 62t74.5 169q0 70 -42.5 118.5t-102.5 74.5q-28 11 -51 -19l-35 -48q-23 -32 -46.5 -37t-55.5 20l-41 28q-32 23 -36.5 46t17.5 55l179 252q9 13 1 23q-4 9 -20 9h-280q-39 0 -56 17 t-17 56v51q0 39 16.5 56t56.5 17h571q53 0 68 -30q17 -34 -13 -75l-151 -214q-26 -36 15 -58q113 -60 162 -137q58 -88 58 -205q0 -173 -116 -295q-118 -126 -342 -126t-359 135q-28 28 -28 52.5z" />
<glyph unicode="4" horiz-adv-x="995" d="M56 357v54q1 37 44 76q45 36 73 95q19 41 48 147.5t65 178.5q53 105 133.5 163t219.5 58q124 0 146 -20q17 -17 17 -57v-548q0 -30 28 -31h55q41 0 56 -15q17 -17 17 -56v-45q0 -39 -17 -56q-15 -15 -56 -15h-55q-28 0 -28 -30v-183q0 -39 -17 -56t-56 -17h-51 q-39 0 -56 17t-17 56v183q0 30 -28 30h-447q-41 0 -57 15q-17 17 -17 56zM346 484.5q7 -11.5 24 -11.5h205q19 0 24.5 7t5.5 24v402q0 32 -32 30q-54 -1 -88 -55q-51 -79 -81 -216q-17 -75 -56 -152q-9 -17 -2 -28.5z" />
<glyph unicode="5" horiz-adv-x="945" d="M115 148q-47 54 9 104l39 32q21 19 39 21.5t29 -5t26 -22.5q96 -100 218 -100q92 0 147.5 61.5t55.5 155.5q0 86 -55.5 138.5t-143.5 52.5q-109 0 -173 -67q-15 -17 -24.5 -24.5t-28 -15t-39.5 1.5l-32 6q-39 8 -52.5 26.5t-5.5 59.5l98 500q6 34 22.5 44t48.5 10h459 q41 0 57 -16.5t16 -56.5v-51q0 -41 -17 -57t-56 -16h-295q-62 0 -70 -43l-19 -90q-2 -15 3.5 -21t24.5 -4q49 8 100 8q120 0 207 -55q86 -54 127.5 -135t41.5 -210q0 -167 -111 -280t-297 -113q-207 0 -349 161z" />
<glyph unicode="6" horiz-adv-x="975" d="M94 496q4 150 54.5 285.5t157.5 221.5q154 124 406 136q39 2 57 -13.5t22 -54.5l4 -51q4 -39 -14 -58t-61 -21q-186 -8 -293 -88q-54 -39 -78 -94q-9 -19 -0.5 -25.5t25.5 1.5q66 28 135 28q182 0 286.5 -102.5t104.5 -279.5q0 -180 -114.5 -281.5t-293.5 -101.5 q-88 0 -167 36t-130 98q-58 71 -79.5 153.5t-21.5 210.5zM293 374q0 -88 55.5 -142t151.5 -54q92 0 148.5 54t56.5 142t-47 139q-62 66 -158 66t-160 -66q-47 -51 -47 -139z" />
<glyph unicode="7" horiz-adv-x="873" d="M56 1003v51q0 39 17 56t57 17h633q39 0 56 -16.5t17 -56.5v-51q0 -26 -13 -75t-34 -90q-19 -34 -58.5 -103.5t-61 -111t-50.5 -101.5t-52 -112q-85 -207 -103 -337q-8 -41 -21 -56q-17 -17 -56 -17h-47q-39 0 -56 17q-23 21 -17 56q19 165 97.5 349.5t216.5 428.5 q19 36 5.5 57.5t-45.5 21.5h-411q-39 0 -56.5 17t-17.5 56z" />
<glyph unicode="8" horiz-adv-x="999" d="M94 363q0 178 146 278q11 8 2 18q-86 85 -86 198q0 68 31 127t85 96q92 62 234 62t234 -62q54 -38 85.5 -97t31.5 -126q0 -111 -85 -196q-11 -11 4 -20q68 -47 109 -119.5t41 -158.5q0 -178 -124 -284q-111 -92 -292 -92t-292 92q-124 105 -124 284zM289 353 q0 -85 59.5 -131.5t160.5 -46.5q100 0 161 47t61 131q0 79 -64 130t-157 51t-157 -51t-64 -130zM348 837q0 -55 46 -93.5t112.5 -38.5t112.5 38.5t46 93.5t-45 93t-113.5 38t-113.5 -38t-45 -93z" />
<glyph unicode="9" horiz-adv-x="975" d="M94 746q0 186 114 289.5t292 103.5q194 0 304 -141q54 -70 74 -148t20 -192q0 -163 -52.5 -307t-169.5 -235q-162 -126 -411 -125q-38 0 -54.5 15t-18.5 52l-4 51q-2 39 16 58t61 19q197 8 302 90q53 41 79 90q9 17 1 23.5t-27 -0.5q-64 -28 -135 -28q-178 0 -284.5 104 t-106.5 281zM291 750q0 -86 45 -137q62 -66 159 -66t159 66q47 51 47 137q0 88 -55.5 142.5t-151.5 54.5q-90 0 -146.5 -53.5t-56.5 -143.5z" />
<glyph unicode=":" horiz-adv-x="449" d="M75 142q0 76 17 108q28 54 104 54t107 -54q16 -32 16 -108t-16 -108q-30 -54 -106.5 -54.5t-104.5 54.5q-17 32 -17 108zM75 805q0 76 17 108q28 54 104 54.5t107 -54.5q16 -32 16 -108t-16 -108q-30 -54 -106.5 -54t-104.5 54q-17 32 -17 108z" />
<glyph unicode=";" horiz-adv-x="569" d="M79 -161.5q-9 18.5 2 54.5l101 344q23 83 109 82h83q47 0 59 -21.5t-6 -72.5l-143 -341q-15 -36 -36 -50t-53 -14h-71q-36 0 -45 18.5zM184 805q0 76 17 108q30 54 106 54.5t104 -54.5q17 -32 17 -108t-17 -108q-28 -54 -104 -54t-106 54q-17 32 -17 108z" />
<glyph unicode="&#x3c;" horiz-adv-x="807" d="M66 575q0 36 32 62l503 423q30 26 53.5 24t50.5 -34l32 -37q26 -30 22 -55q-2 -23 -32 -49l-321 -272q-32 -28 -32 -62q0 -36 32 -62l323 -271q30 -26 32 -48q2 -24 -24 -55l-32 -38q-24 -30 -49 -32.5t-55 23.5l-503 421q-32 26 -32 62z" />
<glyph unicode="=" horiz-adv-x="961" d="M122 359v51q0 39 17 56t56 17h590q39 0 56.5 -17t17.5 -56v-51q0 -39 -17.5 -56t-56.5 -17h-590q-39 0 -56 16.5t-17 56.5zM122 706v51q0 39 17 56t56 17h590q39 0 56.5 -16.5t17.5 -56.5v-51q0 -39 -17.5 -56t-56.5 -17h-590q-39 0 -56 17t-17 56z" />
<glyph unicode="&#x3e;" horiz-adv-x="807" d="M68 194q2 23 32 48l323 271q30 26 30 62q0 34 -32 62l-321 272q-30 26 -32 49q-2 24 22 55l34 37q24 32 48.5 34t54.5 -24l502 -423q32 -26 32 -62t-30 -62l-506 -421q-30 -26 -53.5 -23.5t-49.5 32.5l-32 38q-26 30 -22 55z" />
<glyph unicode="?" horiz-adv-x="903" d="M94 868q0 124 39 192q45 75 120.5 118t167.5 43q160 0 248 -73q103 -86 103 -229q0 -222 -190 -333q-49 -28 -48 -71q0 -41 -17 -58t-57 -17h-50q-39 0 -57 18q-19 19 -17 57v37q0 68 36 109q9 13 21.5 23.5t20 15.5t22.5 12.5l21 10.5q64 38 88 66q32 41 32 100 q0 64 -38.5 99.5t-104.5 35.5q-60 0 -101.5 -43t-41.5 -113q0 -39 -17 -56t-56 -17h-51q-39 0 -56 17t-17 56zM323 142q0 76 15 108q26 54 97.5 54t99.5 -54q16 -32 16 -108t-16 -108q-28 -54 -99 -54.5t-98 54.5q-15 32 -15 108z" />
<glyph unicode="[" horiz-adv-x="661" d="M103 15v1097q0 85 36 120.5t120 35.5h263q39 0 56.5 -17t17.5 -56v-51q0 -39 -17 -56t-57 -17h-193q-17 0 -22.5 -5.5t-5.5 -22.5v-958q0 -17 5.5 -23t22.5 -6h193q39 0 56.5 -16.5t17.5 -56.5v-51q0 -39 -17 -56t-57 -17h-263q-85 0 -120.5 35.5t-35.5 120.5z" />
<glyph unicode="\" horiz-adv-x="695" d="M51.5 1198q10.5 21 48.5 35l48 16q38 13 59.5 2t32.5 -47l419 -1219q13 -36 3 -57.5t-48 -34.5l-48 -17q-38 -13 -59 -3t-34 48l-419 1218q-13 38 -2.5 59z" />
<glyph unicode="]" horiz-adv-x="661" d="M85 -17q0 39 16.5 56t56.5 17h193q17 0 23 6t6 23v958q0 17 -6 22.5t-23 5.5h-193q-39 0 -56 17t-17 56v51q0 39 16.5 56t56.5 17h263q85 0 120.5 -35.5t35.5 -120.5v-1097q0 -85 -36 -120.5t-120 -35.5h-263q-39 0 -56 17t-17 56v51z" />
<glyph unicode="&#xa3;" horiz-adv-x="913" d="M66 73v51q0 39 17 56t56 17h4q17 0 22.5 6t5.5 22v218q0 17 -5.5 23t-22.5 6h-4q-39 0 -56 16.5t-17 56.5v51q0 39 17 56t56 17h4q17 0 22.5 5.5t5.5 20.5v72q0 162 97.5 267.5t272.5 105.5q167 0 271 -80q30 -24 32 -49q2 -24 -23 -55l-32 -39q-26 -30 -51 -32 q-21 -2 -52 21q-54 38 -139 37q-81 0 -130 -47t-49 -128v-73q0 -15 6 -20.5t22 -5.5h164q39 0 56 -17t17 -56v-51q0 -39 -17 -56t-56 -17h-164q-17 0 -22.5 -6t-5.5 -23v-218q0 -17 5.5 -22.5t22.5 -5.5h395q39 0 56 -17t17 -56v-51q0 -39 -17 -56t-56 -17h-652 q-39 0 -56 17t-17 56z" />
<glyph unicode="&#xad;" horiz-adv-x="883" d="M103 571v51q0 39 17 56t57 17h548q39 0 56.5 -17t17.5 -56v-51q0 -39 -17.5 -56t-56.5 -17h-548q-39 0 -56.5 17t-17.5 56z" />
<glyph unicode="&#x5b0;" d="M-83 -190q0 43 12 60q19 34 71.5 34t70.5 -34q12 -17 12 -60t-12 -64q-19 -30 -71.5 -30t-70.5 30q-11 21 -12 64zM-83 -470q0 43 12 64q19 30 71.5 30t70.5 -30q12 -21 12 -64t-12 -60q-19 -34 -71.5 -34t-70.5 34q-11 17 -12 60z" />
<glyph unicode="&#x5b1;" d="M-380 -190q0 43 12 60q21 34 71 34q51 0 73 -34q12 -17 12 -60t-12 -64q-23 -30 -73 -30q-49 0 -71 30q-11 21 -12 64zM-231 -470q0 43 13 64q17 30 69.5 30t71.5 -30q11 -21 11 -64t-11 -60q-19 -34 -71.5 -34t-69.5 34q-13 17 -13 60zM-81 -190q0 43 11 60q21 34 70 34 q53 0 73 -34q12 -17 12 -60t-12 -64q-21 -30 -73 -30q-49 0 -70 30q-11 21 -11 64zM214 -190q0 43 13 60q17 34 69.5 34t71.5 -34q12 -17 12 -60t-12 -64q-19 -30 -71.5 -30t-69.5 30q-13 21 -13 64zM214 -470q0 43 13 64q17 30 69.5 30t71.5 -30q12 -21 12 -64t-12 -60 q-19 -34 -71.5 -34t-69.5 34q-13 17 -13 60z" />
<glyph unicode="&#x5b2;" d="M-380 -171v-19q0 -34 14.5 -48t46.5 -14h364q32 0 46 14t14 48v19q0 32 -14 46t-46 14h-364q-32 0 -46.5 -14t-14.5 -46zM214 -190q0 43 13 60q17 34 69.5 34t71.5 -34q12 -17 12 -60t-12 -64q-19 -30 -70.5 -30t-70.5 30q-13 21 -13 64zM214 -470q0 43 13 64 q19 30 70.5 30t70.5 -30q12 -21 12 -64t-12 -60q-19 -34 -71.5 -34t-69.5 34q-13 17 -13 60z" />
<glyph unicode="&#x5b3;" d="M-380 -181q0 33 14.5 47t46.5 14h364q34 0 48 -14t14 -47t-14 -47t-48 -14h-96q-15 0 -19.5 -5t-4.5 -18v-212q0 -32 -15 -47q-13 -15 -46 -15t-47 14t-14 48v212q0 13 -5 18t-20 5h-97q-32 0 -46.5 14t-14.5 47zM216 -190q0 43 11 60q19 34 70.5 34t70.5 -34 q12 -17 12 -60t-12 -64q-19 -30 -70.5 -30t-70.5 30q-11 21 -11 64zM216 -470q0 43 11 64q19 30 70.5 30t70.5 -30q12 -21 12 -64t-12 -60q-19 -34 -70.5 -34t-70.5 34q-11 17 -11 60z" />
<glyph unicode="&#x5b4;" d="M-83 -190q0 43 12 60q21 34 69 34q53 0 73 -34q12 -17 12 -60t-12 -64q-21 -30 -73 -30q-49 0 -69 30q-11 21 -12 64z" />
<glyph unicode="&#x5b5;" d="M-233 -190q0 43 13 60q21 34 70 34q53 0 73 -34q11 -17 11 -60t-11 -64q-21 -30 -73 -30q-49 0 -70 30q-13 21 -13 64zM66 -190q0 43 11 60q21 34 70 34q53 0 73 -34q13 -17 13 -60t-13 -64q-21 -30 -73 -30q-49 0 -70 30q-11 21 -11 64z" />
<glyph unicode="&#x5b6;" d="M-233 -190q0 43 13 60q21 34 70 34q53 0 73 -34q11 -17 11 -60t-11 -64q-21 -30 -73 -30q-49 0 -70 30q-13 21 -13 64zM-83 -470q0 43 12 64q19 30 71.5 30t70.5 -30q12 -21 12 -64t-12 -60q-19 -34 -71.5 -34t-70.5 34q-11 17 -12 60zM66 -190q0 43 11 60q21 34 70 34 q53 0 73 -34q13 -17 13 -60t-13 -64q-21 -30 -73 -30q-49 0 -70 30q-11 21 -11 64z" />
<glyph unicode="&#x5b7;" d="M-267 -171v-19q0 -34 14 -48t46 -14h412q34 0 48 14t14 48v19q0 32 -14 46t-48 14h-412q-32 0 -46 -14t-14 -46z" />
<glyph unicode="&#x5b8;" d="M-267 -171v-19q0 -34 14 -48t46 -14h113q15 0 19 -4.5t4 -17.5v-137q0 -34 14 -48t48 -14h18q34 0 47 15q15 15 15 47v137q0 13 5 17.5t20 4.5h109q34 0 48 14t14 48v19q0 32 -14 46t-48 14h-412q-32 0 -46 -14t-14 -46z" />
<glyph unicode="&#x5b9;" d="M-83 1308q0 43 12 62q21 32 69 32q53 0 73 -32q12 -19 12 -62t-12 -64q-21 -30 -73 -30q-49 0 -69 30q-11 21 -12 64z" />
<glyph unicode="&#x5ba;" d="M-83 1308q0 43 12 62q21 32 69 32q53 0 73 -32q12 -19 12 -62t-12 -64q-21 -30 -73 -30q-49 0 -69 30q-11 21 -12 64z" />
<glyph unicode="&#x5bb;" horiz-adv-x="1" d="M-340 -190q0 43 11 60q19 34 71.5 34t69.5 -34q11 -17 11 -60t-11 -64q-19 -30 -70.5 -30t-70.5 30q-11 21 -11 64zM-83 -329q0 41 12 62q19 32 71.5 32t70.5 -32q12 -21 12 -62q0 -45 -12 -62q-19 -34 -71.5 -34t-70.5 34q-11 17 -12 62zM178 -470q0 43 12 64 q19 30 70.5 30t70.5 -30q11 -21 11 -64t-11 -60q-19 -34 -71.5 -34t-69.5 34q-11 17 -12 60z" />
<glyph unicode="&#x5bc;" d="M-92 524v79q0 43 11 60q21 32 68 32h22q51 0 72 -32q11 -17 11 -60v-79q0 -41 -11 -62q-21 -30 -72 -30h-22q-47 0 -68 30q-11 21 -11 62z" />
<glyph unicode="&#x5bd;" d="M-62 -152q0 32 14 47t48 15t48 -15t14 -47v-250q0 -34 -14 -48t-48 -14t-48 14t-14 48v250z" />
<glyph unicode="&#x5be;" horiz-adv-x="864" d="M94 1003v51q0 39 17 56t56 17h549q39 0 56 -16.5t17 -56.5v-51q0 -39 -17 -56t-56 -17h-549q-39 0 -56 17t-17 56z" />
<glyph unicode="&#x5bf;" d="M-267 1298q0 -32 14 -46t46 -14h412q34 0 48 14t14 46v19q0 34 -14 48t-48 14h-412q-32 0 -46 -14t-14 -48v-19z" />
<glyph unicode="&#x5c0;" horiz-adv-x="338" d="M113 -139v1405q0 26 11 37.5t38 11.5h15q26 0 37 -11.5t11 -37.5v-1405q0 -26 -11 -37.5t-37 -11.5h-15q-26 0 -37.5 11.5t-11.5 37.5z" />
<glyph unicode="&#x5c1;" d="M1109 1308q0 43 11 62q21 32 71 32q53 0 73 -32q12 -19 12 -62t-12 -64q-23 -30 -73 -30q-49 0 -71 30q-11 21 -11 64z" />
<glyph unicode="&#x5c2;" d="M133 1308q0 43 12 62q21 32 71 32q53 0 73 -32q12 -19 12 -62t-12 -64q-23 -30 -73 -30q-49 0 -71 30q-11 21 -12 64z" />
<glyph unicode="&#x5c3;" horiz-adv-x="449" d="M75 142q0 76 17 108q28 54 104 54t107 -54q16 -32 16 -108t-16 -108q-30 -54 -106.5 -54.5t-104.5 54.5q-17 32 -17 108zM75 805q0 76 17 108q28 54 104 54.5t107 -54.5q16 -32 16 -108t-16 -108q-30 -54 -106.5 -54t-104.5 54q-17 32 -17 108z" />
<glyph unicode="&#x5c4;" d="M-100 1387q0 53 14 73q26 39 84 39q62 0 88 -39q14 -20 14 -73q0 -51 -14 -77q-26 -36 -88 -36q-58 0 -84 36q-13 26 -14 77z" />
<glyph unicode="&#x5c5;" d="M-100 1387q0 53 14 73q26 39 84 39q62 0 88 -39q14 -20 14 -73q0 -51 -14 -77q-26 -36 -88 -36q-58 0 -84 36q-13 26 -14 77z" />
<glyph unicode="&#x5c7;" d="M-209 -171v-19q0 -34 14.5 -48t47.5 -14h53q15 0 19 -4.5t4 -17.5v-207q0 -34 14 -48t48 -14h18q34 0 47 15q15 15 15 47v207q0 13 5 17.5t20 4.5h51q34 0 48 14t14 48v19q0 32 -14.5 46t-47.5 14h-294q-34 0 -48 -14t-14 -46z" />
<glyph unicode="&#x5d0;" horiz-adv-x="1102" d="M94 158v218q0 163 53 250q53 88 146 131q19 9 4 32l-169 243q-24 36 -19 62q13 34 49 33h101q41 0 68 -39l344 -498q17 -24 35 -15q49 30 76 77q34 66 33 190v60q0 17 -5.5 22.5t-22.5 5.5h-49q-39 0 -56 17t-17 56v51q0 39 17 56t56 17h117q85 0 121.5 -36.5 t36.5 -120.5v-173q0 -163 -53 -250q-51 -86 -145 -130q-20 -9 -5 -30l201 -291q21 -30 15 -57q-4 -39 -47 -39h-102q-41 0 -67 38l-374 544q-17 24 -36 15q-49 -30 -75 -77q-34 -66 -34 -189v-106q0 -17 6 -22.5t22 -5.5h49q39 0 56.5 -17t17.5 -56v-51q0 -39 -17 -56 t-57 -17h-116q-85 0 -121.5 36.5t-36.5 121.5z" />
<glyph unicode="&#x5d1;" horiz-adv-x="1040" d="M75 73v51q0 39 17 56t56 17h491q17 0 22.5 6t5.5 22v547q0 88 -35 123t-123 35h-319q-39 0 -56.5 17t-17.5 56v51q0 39 17 56t57 17h327q190 0 268.5 -78.5t78.5 -268.5v-555q0 -17 6 -22.5t22 -5.5h38q39 0 56 -17t17 -56v-51q0 -39 -16.5 -56t-56.5 -17h-782 q-39 0 -56 17t-17 56z" />
<glyph unicode="&#x5d2;" horiz-adv-x="787" d="M56 60v51q0 23 8 45q13 17 37 24q173 66 277 190q66 77 95 141q23 49 23 167v224q0 17 -5.5 22.5t-22.5 5.5h-173q-39 0 -56 17t-17 56v51q0 39 17 56t56 17h240q86 0 123 -37q35 -35 35 -120v-897q0 -39 -17 -56t-56 -17h-51q-39 0 -56 17t-17 56v183q0 49 -23 11 q-32 -56 -90 -122q-56 -64 -129.5 -111t-123.5 -47q-39 0 -56.5 17t-17.5 56z" />
<glyph unicode="&#x5d3;" horiz-adv-x="1037" d="M75 1003v51q0 39 17 56t56 17h760q39 0 56 -16.5t17 -56.5v-51q0 -39 -17 -56t-56 -17h-96q-17 0 -22.5 -5.5t-5.5 -22.5v-829q0 -39 -17 -56t-57 -17h-51q-39 0 -56 17t-17 56v829q0 17 -5.5 22.5t-22.5 5.5h-410q-39 0 -56 17t-17 56z" />
<glyph unicode="&#x5d4;" horiz-adv-x="1080" d="M94 1003v51q0 39 17 56t56 17h481q96 0 157 -16.5t104.5 -60t60 -103.5t16.5 -158v-716q0 -39 -16.5 -56t-56.5 -17h-51q-39 0 -56 17t-17 56v709q0 83 -32 115.5t-116 32.5h-474q-39 0 -56 17t-17 56zM132 73v521q0 39 16.5 56t56.5 17h51q39 0 56 -17t17 -56v-521 q0 -39 -17 -56t-56 -17h-51q-39 0 -56 17t-17 56z" />
<glyph unicode="&#x5d5;" horiz-adv-x="638" d="M75 1003v51q0 39 17 56t56 17h188q115 0 162 -47t47 -161v-846q0 -39 -17 -56t-56 -17h-51q-39 0 -56 17t-17 56v829q0 17 -6 22.5t-23 5.5h-171q-39 0 -56 17t-17 56z" />
<glyph unicode="&#x5d6;" horiz-adv-x="730" d="M75 1003v51q0 39 17 56t56 17h434q39 0 56.5 -16.5t17.5 -56.5v-51q0 -39 -17 -56t-57 -17h-90q-17 0 -22.5 -5.5t-5.5 -22.5v-829q0 -39 -17 -56t-56 -17h-51q-39 0 -56 17t-17 56v829q0 17 -5.5 22.5t-22.5 5.5h-91q-39 0 -56 17t-17 56z" />
<glyph unicode="&#x5d7;" horiz-adv-x="1232" d="M75 1003v51q0 39 17 56t56 17h946q39 0 56 -16.5t17 -56.5v-51q0 -39 -17 -56t-56 -17h-40q-17 0 -22.5 -5.5t-5.5 -22.5v-829q0 -39 -17 -56t-56 -17h-51q-39 0 -56 17t-17 56v829q0 17 -6 22.5t-23 5.5h-349q-17 0 -22.5 -5.5t-5.5 -22.5v-829q0 -39 -17 -56t-57 -17 h-50q-39 0 -56.5 17t-17.5 56v829q0 17 -5.5 22.5t-22.5 5.5h-49q-39 0 -56 17t-17 56z" />
<glyph unicode="&#x5d8;" horiz-adv-x="1181" d="M75 1003v51q0 39 17 56t56 17h117q85 0 120.5 -35.5t35.5 -120.5v-539q0 -116 32 -165q56 -85 202.5 -85t203.5 85q32 49 32 165v359q0 94 -21 126q-26 39 -73 39q-45 0 -72 -39q-23 -32 -22 -126v-62q0 -39 -17 -56t-57 -17h-50q-39 0 -56.5 17t-17.5 56v86 q0 86 13.5 140t52.5 101q81 94 226 94q68 0 128.5 -25.5t98.5 -70.5q64 -77 64 -255v-395q0 -101 -18 -165t-61 -117q-109 -135 -353 -135q-115 0 -209 36.5t-144 98.5q-43 53 -61 117t-18 165v498q0 17 -6 22.5t-23 5.5h-47q-39 0 -56 17t-17 56z" />
<glyph unicode="&#x5d9;" horiz-adv-x="623" d="M75 1003v51q0 39 17 56t56 17h245q85 0 120.5 -35.5t35.5 -120.5v-334q0 -39 -17 -56t-57 -17h-50q-39 0 -56.5 16.5t-17.5 56.5v265q0 17 -5.5 22.5t-22.5 5.5h-175q-39 0 -56 17t-17 56z" />
<glyph unicode="&#x5da;" horiz-adv-x="1029" d="M75 1003v51q0 39 17 56t56 17h752q39 0 56 -16.5t17 -56.5v-51q0 -39 -17 -56t-56 -17h-71q-17 0 -23 -5.5t-6 -22.5v-940q0 -17 6 -22.5t23 -5.5h71q39 0 56 -17t17 -56v-51q0 -39 -17 -56t-56 -17h-141q-85 0 -120.5 35.5t-35.5 120.5v1009q0 17 -5.5 22.5t-22.5 5.5 h-427q-39 0 -56 17t-17 56z" />
<glyph unicode="&#x5db;" horiz-adv-x="931" d="M75 73v51q0 39 17 56t56 17h237q227 0 267 175q17 75 17 192q0 126 -13 191q-17 88 -66 130q-53 45 -163 45h-269q-39 0 -56 17t-17 56v51q0 39 16.5 56t56.5 17h270q116 0 179 -17q98 -24 158 -99q101 -126 101 -447q0 -327 -120 -448q-75 -75 -188 -99 q-81 -17 -214 -17h-196q-39 0 -56 17t-17 56z" />
<glyph unicode="&#x5dc;" horiz-adv-x="1039" d="M75 1139v129q0 39 17 56.5t56 17.5h51q39 0 56 -17t17 -57v-112q0 -17 6 -23t23 -6h432q122 0 175 -50q56 -56 56 -175v-105q0 -109 -30 -177q-31 -71 -119 -154l-216 -195q-23 -21 -22 -46q0 -15 5.5 -21.5t20.5 -6.5h38q39 0 56 -17t17 -56v-51q0 -39 -17 -56t-56 -17 h-124q-81 0 -128 45q-39 39 -40 122q0 68 16 109q24 70 90 130l210 191q51 47 76.5 94t25.5 111v28q0 56 -23 79q-21 21 -75 21h-385q-115 0 -162 47t-47 162z" />
<glyph unicode="&#x5dd;" horiz-adv-x="1151" d="M75 1003v51q0 39 17 56t56 17h572q96 0 157 -16.5t104 -60t60 -103.5t17 -158v-580q0 -115 -47 -162t-162 -47h-415q-115 0 -162 47t-47 162v693q0 17 -5.5 22.5t-22.5 5.5h-49q-39 0 -56 17t-17 56zM423 225q0 -17 5.5 -22.5t22.5 -5.5h381q17 0 23 6t6 22v557 q0 83 -32 115.5t-117 32.5h-261q-17 0 -22.5 -5.5t-5.5 -22.5v-677z" />
<glyph unicode="&#x5de;" horiz-adv-x="1166" d="M75 1003v51q0 39 17 56t56 17h186q56 0 80 -23.5t24 -81.5v-37q0 -21 10 -25t24 17q39 68 111.5 115t160.5 47q163 0 248 -104q45 -56 63 -139.5t18 -213.5v-526q0 -85 -36 -120.5t-120 -35.5h-216q-39 0 -56 17t-17 56v51q0 39 16.5 56t56.5 17h146q17 0 23 6t6 22v496 q0 130 -42 181q-43 52 -126 52q-94 0 -163.5 -78.5t-89.5 -178.5q-17 -71 -17 -169v-455q0 -39 -17 -56t-56 -17h-51q-39 0 -56.5 17t-17.5 56v829q0 17 -5.5 22.5t-22.5 5.5h-64q-39 0 -56 17t-17 56z" />
<glyph unicode="&#x5df;" horiz-adv-x="601" d="M75 1003v51q0 39 17 56t56 17h168q85 0 120.5 -35.5t35.5 -120.5v-1009q0 -17 5.5 -22.5t22.5 -5.5h66q39 0 56 -17t17 -56v-51q0 -39 -17 -56t-56 -17h-136q-85 0 -120.5 35.5t-35.5 120.5v1009q0 17 -5.5 22.5t-22.5 5.5h-98q-39 0 -56 17t-17 56z" />
<glyph unicode="&#x5e0;" horiz-adv-x="663" d="M75 73v51q0 39 17 56t56 17h196q17 0 22.5 6t5.5 22v677q0 17 -5.5 22.5t-22.5 5.5h-149q-38 0 -54.5 17t-16.5 56v51q0 39 17 56t54 17h218q85 0 120.5 -35.5t35.5 -120.5v-815q0 -85 -35.5 -120.5t-120.5 -35.5h-265q-39 0 -56 17t-17 56z" />
<glyph unicode="&#x5e1;" horiz-adv-x="1134" d="M75 1003v51q0 39 17 56t56 17h555q186 0 263 -75q39 -43 54 -101.5t21 -161.5v-383q0 -107 -17 -167.5t-58 -114.5q-47 -60 -137.5 -98.5t-199.5 -38.5t-202 38.5t-138 98.5q-41 54 -58 114.5t-17 167.5v496q0 17 -5.5 22.5t-22.5 5.5h-38q-39 0 -56 17t-17 56zM411 453 q0 -126 31 -182q53 -90 186 -91q135 0 186 91q30 56 30 182v331q-6 86 -32 112q-34 34 -117 34h-255q-17 0 -23 -5.5t-6 -22.5v-449z" />
<glyph unicode="&#x5e2;" horiz-adv-x="1112" d="M75 1003v51q0 39 17 56t56 17h173q85 0 120.5 -35.5t35.5 -120.5v-746q0 -28 28 -28q171 0 250 85q38 41 52 104t14 181v335q0 17 -5.5 22.5t-22.5 5.5h-83q-39 0 -56 17t-17 56v51q0 39 17 56t56 17h152q85 0 120.5 -35.5t35.5 -120.5v-415q0 -167 -18 -240 q-28 -111 -102 -184q-79 -79 -190 -109q-86 -23 -227 -23h-321q-39 0 -56.5 17t-17.5 56v51q0 39 17 56t57 17h92q17 0 22.5 6t5.5 22v677q0 17 -5.5 22.5t-22.5 5.5h-104q-39 0 -56 17t-17 56z" />
<glyph unicode="&#x5e3;" horiz-adv-x="1018" d="M94 622v297q0 115 47 161.5t162 46.5h417q115 0 161.5 -47t46.5 -161v-957q0 -17 5.5 -22.5t22.5 -5.5h45q39 0 56.5 -17t17.5 -56v-51q0 -39 -17 -56t-57 -17h-114q-85 0 -120.5 35.5t-35.5 120.5v1009q0 17 -5.5 22.5t-22.5 5.5h-384q-17 0 -22.5 -5.5t-5.5 -22.5v-263 q0 -17 5.5 -22.5t22.5 -5.5h106q39 0 56 -17t17 -57v-50q0 -39 -17 -56.5t-56 -17.5h-122q-115 0 -162 47t-47 162z" />
<glyph unicode="&#x5e4;" horiz-adv-x="1044" d="M113 73v51q0 39 17 56t56 17h419q83 0 115.5 33t32.5 116v556q0 17 -5.5 22.5t-22.5 5.5h-387q-17 0 -22.5 -5.5t-5.5 -22.5v-263q0 -17 5.5 -22.5t22.5 -5.5h143q39 0 56 -17t17 -57v-50q0 -39 -17 -56.5t-56 -17.5h-160q-115 0 -161.5 47t-46.5 162v297q0 115 47 161.5 t161 46.5h421q115 0 162 -47t47 -161v-581q0 -96 -17 -157t-60.5 -104t-104.5 -60t-156 -17h-427q-39 0 -56 17t-17 56z" />
<glyph unicode="&#x5e5;" horiz-adv-x="1144" d="M75 1003v51q0 39 17 56t56 17h168q85 0 120.5 -35.5t35.5 -120.5v-407q0 -30 28 -29q101 4 182 40q116 54 162 163q28 68 28 164q0 17 -5.5 22.5t-22.5 5.5h-121q-39 0 -56 17t-17 56v51q0 39 17 56t56 17h190q85 0 120.5 -35.5t35.5 -120.5q0 -188 -43 -302 q-73 -195 -265 -278q-100 -43 -261 -64q-17 -2 -22.5 -6.5t-5.5 -21.5v-337q0 -17 5.5 -22.5t22.5 -5.5h97q39 0 56.5 -17t17.5 -56v-51q0 -39 -17 -56t-57 -17h-167q-85 0 -120.5 35.5t-35.5 120.5v1009q0 17 -5.5 22.5t-22.5 5.5h-98q-39 0 -56 17t-17 56z" />
<glyph unicode="&#x5e6;" horiz-adv-x="1110" d="M75 1003v51q0 39 17 56t56 17h147q88 0 122 -37q36 -32 36 -120v-19q0 -79 16 -125t61 -84l84 -69q19 -17 47 -4q45 21 81 58q77 79 77 156v19q0 17 -5.5 22.5t-22.5 5.5h-86q-39 0 -56.5 17t-17.5 56v51q0 39 17 56t57 17h154q88 0 122 -37q35 -32 35 -120v-19 q0 -137 -47.5 -235t-156.5 -181q-8 -6 -6 -15t9 -15q53 -49 74.5 -69.5t47 -51.5t33 -59t12 -67.5t4.5 -99.5q0 -88 -35 -120q-34 -38 -122 -38h-656q-38 0 -55 17t-17 56v51q0 39 17 56t55 17h573q28 0 28 30q0 56 -84 126l-303 248q-73 66 -102 128t-29 154v19 q0 17 -6 22.5t-23 5.5h-79q-39 0 -56 17t-17 56z" />
<glyph unicode="&#x5e7;" horiz-adv-x="1069" d="M94 1003v51q0 39 17 56t56 17h596q122 0 175 -50q56 -58 56 -175v-105q0 -77 -15 -128q-15 -54 -56 -109l-215 -289q-24 -34 -20 -49q4 -24 30 -25h32q39 0 56 -17t17 -56v-51q0 -39 -17 -56t-56 -17h-124q-83 0 -128 45q-39 39 -40 122q0 45 18 91t34 71.5t54 76.5 l186 259q47 64 47 137v28q0 56 -22 78t-76 22h-532q-39 0 -56 17t-17 56zM158 -190v878q0 39 17 56t56 17h51q39 0 56 -17t17 -56v-878q0 -39 -17 -56t-56 -17h-51q-39 0 -56 17t-17 56z" />
<glyph unicode="&#x5e8;" horiz-adv-x="978" d="M75 1003v51q0 39 17 56t56 17h399q96 0 157 -16.5t104 -60t60 -103.5t17 -158v-716q0 -39 -17 -56t-56 -17h-51q-39 0 -56 17t-17 56v709q0 83 -32 115.5t-117 32.5h-391q-39 0 -56 17t-17 56z" />
<glyph unicode="&#x5e9;" horiz-adv-x="1392" d="M113 430v541q0 86 35 121q34 36 121 35h103q39 0 56 -16.5t17 -56.5v-51q0 -39 -17 -56t-56 -17h-34q-17 0 -22.5 -5.5t-5.5 -22.5v-483q0 -124 49 -173t173 -49h47q17 0 22.5 6t5.5 22v829q0 39 17 56t56 17h51q39 0 56 -16.5t17 -56.5v-829q0 -17 5.5 -22.5t22.5 -5.5 h47q124 0 173 49t49 173v483q0 17 -5.5 22.5t-22.5 5.5h-34q-39 0 -56 17t-17 56v51q0 39 17 56t56 17h103q86 0 121 -35q36 -36 35 -121v-541q0 -124 -21.5 -201t-75.5 -131q-98 -98 -333 -98h-325q-235 0 -333 98q-54 54 -75.5 131t-21.5 201z" />
<glyph unicode="&#x5ea;" horiz-adv-x="1181" d="M75 73v51q0 39 17 56t56 17h89q17 0 22.5 6t5.5 22v677q0 17 -5.5 22.5t-22.5 5.5h-79q-41 0 -58 17t-17 56v51q0 39 16.5 56t58.5 17h592q96 0 157 -16.5t104 -60t60 -103.5t17 -158v-716q0 -39 -17 -56t-56 -17h-51q-39 0 -56 17t-17 56v709q0 83 -32 115.5t-117 32.5 h-252q-17 0 -22.5 -5.5t-5.5 -22.5v-693q0 -115 -47 -162t-161 -47h-106q-39 0 -56 17t-17 56z" />
<glyph unicode="&#x5f0;" horiz-adv-x="1277" d="M75 1003v51q0 39 17 56t56 17h188q115 0 162 -47t47 -161v-846q0 -39 -17 -56t-56 -17h-51q-39 0 -56 17t-17 56v829q0 17 -6 22.5t-23 5.5h-171q-39 0 -56 17t-17 56zM714 1003v51q0 39 17 56t56 17h188q115 0 162 -47t47 -161v-846q0 -39 -17 -56t-56 -17h-51 q-39 0 -56 17t-17 56v829q0 17 -6 22.5t-23 5.5h-171q-39 0 -56 17t-17 56z" />
<glyph unicode="&#x5f1;" horiz-adv-x="1262" d="M75 1003v51q0 39 17 56t56 17h245q85 0 120.5 -35.5t35.5 -120.5v-334q0 -39 -17 -56t-57 -17h-50q-39 0 -56.5 16.5t-17.5 56.5v265q0 17 -5.5 22.5t-22.5 5.5h-175q-39 0 -56 17t-17 56zM699 1003v51q0 39 17 56t56 17h188q115 0 162 -47t47 -161v-846q0 -39 -17 -56 t-56 -17h-51q-39 0 -56 17t-17 56v829q0 17 -6 22.5t-23 5.5h-171q-39 0 -56 17t-17 56z" />
<glyph unicode="&#x5f2;" horiz-adv-x="1247" d="M75 1003v51q0 39 17 56t56 17h245q85 0 120.5 -35.5t35.5 -120.5v-334q0 -39 -17 -56t-57 -17h-50q-39 0 -56.5 16.5t-17.5 56.5v265q0 17 -5.5 22.5t-22.5 5.5h-175q-39 0 -56 17t-17 56zM699 1003v51q0 39 17 56t56 17h245q85 0 120.5 -35.5t35.5 -120.5v-334 q0 -39 -17 -56t-57 -17h-50q-39 0 -56.5 16.5t-17.5 56.5v265q0 17 -5.5 22.5t-22.5 5.5h-175q-39 0 -56 17t-17 56z" />
<glyph unicode="&#x5f3;" horiz-adv-x="529" d="M57 693.5q-10 20.5 5 52.5l150 344q19 45 44.5 64t70.5 19h94q96 0 45 -94l-192 -342q-21 -38 -39.5 -51t-50.5 -13h-79q-38 0 -48 20.5z" />
<glyph unicode="&#x5f4;" horiz-adv-x="945" d="M57 693.5q-10 20.5 5 52.5l150 344q19 45 44.5 64t70.5 19h94q96 0 45 -94l-192 -342q-21 -38 -39.5 -51t-50.5 -13h-79q-38 0 -48 20.5zM470 693.5q-10 20.5 5 52.5l150 344q19 45 44.5 64t70.5 19h94q96 0 45 -94l-192 -342q-21 -38 -39.5 -51t-50.5 -13h-79 q-38 0 -48 20.5z" />
<glyph unicode="&#x2000;" horiz-adv-x="749" />
<glyph unicode="&#x2001;" horiz-adv-x="1499" />
<glyph unicode="&#x2002;" horiz-adv-x="749" />
<glyph unicode="&#x2003;" horiz-adv-x="1499" />
<glyph unicode="&#x2004;" horiz-adv-x="499" />
<glyph unicode="&#x2005;" horiz-adv-x="374" />
<glyph unicode="&#x2006;" horiz-adv-x="249" />
<glyph unicode="&#x2007;" horiz-adv-x="249" />
<glyph unicode="&#x2008;" horiz-adv-x="187" />
<glyph unicode="&#x2009;" horiz-adv-x="299" />
<glyph unicode="&#x200a;" horiz-adv-x="83" />
<glyph unicode="&#x200c;" />
<glyph unicode="&#x200d;" />
<glyph unicode="&#x200e;" />
<glyph unicode="&#x200f;" />
<glyph unicode="&#x2010;" horiz-adv-x="883" d="M103 571v51q0 39 17 56t57 17h548q39 0 56.5 -17t17.5 -56v-51q0 -39 -17.5 -56t-56.5 -17h-548q-39 0 -56.5 17t-17.5 56z" />
<glyph unicode="&#x2011;" horiz-adv-x="883" d="M103 571v51q0 39 17 56t57 17h548q39 0 56.5 -17t17.5 -56v-51q0 -39 -17.5 -56t-56.5 -17h-548q-39 0 -56.5 17t-17.5 56z" />
<glyph unicode="&#x2012;" horiz-adv-x="883" d="M103 571v51q0 39 17 56t57 17h548q39 0 56.5 -17t17.5 -56v-51q0 -39 -17.5 -56t-56.5 -17h-548q-39 0 -56.5 17t-17.5 56z" />
<glyph unicode="&#x2013;" horiz-adv-x="901" d="M85 571v51q0 39 16.5 56t56.5 17h605q39 0 56 -17t17 -56v-51q0 -39 -17 -56t-56 -17h-605q-39 0 -56 17t-17 56z" />
<glyph unicode="&#x2014;" horiz-adv-x="1277" d="M85 571v51q0 39 16.5 56t56.5 17h981q39 0 56 -17t17 -56v-51q0 -39 -17 -56t-56 -17h-981q-39 0 -56 17t-17 56z" />
<glyph unicode="&#x2015;" horiz-adv-x="1747" d="M85 571v51q0 39 16.5 56t56.5 17h1450q39 0 56.5 -17t17.5 -56v-51q0 -39 -17.5 -56t-56.5 -17h-1450q-39 0 -56 17t-17 56z" />
<glyph unicode="&#x2018;" horiz-adv-x="529" d="M43 808l192 342q21 38 39.5 51t50.5 13h79q38 0 48 -20.5t-5 -52.5l-150 -344q-19 -45 -44.5 -64t-70.5 -19h-94q-96 0 -45 94z" />
<glyph unicode="&#x2019;" horiz-adv-x="529" d="M78 734.5q-10 20.5 5 52.5l150 344q19 45 44.5 64t70.5 19h94q96 0 45 -94l-192 -342q-21 -38 -39.5 -51t-50.5 -13h-79q-38 0 -48 20.5z" />
<glyph unicode="&#x201a;" horiz-adv-x="529" d="M78 -159.5q-10 20.5 5 52.5l150 344q19 45 44.5 64t70.5 19h94q96 0 45 -94l-192 -342q-21 -38 -39.5 -51t-50.5 -13h-79q-38 0 -48 20.5z" />
<glyph unicode="&#x201c;" horiz-adv-x="945" d="M45 808l192 342q21 38 39.5 51t50.5 13h79q38 0 48 -20.5t-5 -52.5l-150 -344q-19 -45 -44.5 -64t-70.5 -19h-94q-96 0 -45 94zM458 808l192 342q21 38 39.5 51t50.5 13h79q38 0 48 -20.5t-5 -52.5l-150 -344q-19 -45 -44.5 -64t-70.5 -19h-94q-96 0 -45 94z" />
<glyph unicode="&#x201d;" horiz-adv-x="945" d="M78 734.5q-10 20.5 5 52.5l150 344q19 45 44.5 64t70.5 19h94q96 0 45 -94l-192 -342q-21 -38 -39.5 -51t-50.5 -13h-79q-38 0 -48 20.5zM491 734.5q-10 20.5 5 52.5l150 344q19 45 44.5 64t70.5 19h94q96 0 45 -94l-192 -342q-21 -38 -39.5 -51t-50.5 -13h-79 q-38 0 -48 20.5z" />
<glyph unicode="&#x201e;" horiz-adv-x="945" d="M78 -159.5q-10 20.5 5 52.5l150 344q19 45 44.5 64t70.5 19h94q96 0 45 -94l-192 -342q-21 -38 -39.5 -51t-50.5 -13h-79q-38 0 -48 20.5zM491 -159.5q-10 20.5 5 52.5l150 344q19 45 44.5 64t70.5 19h94q96 0 45 -94l-192 -342q-21 -38 -39.5 -51t-50.5 -13h-79 q-38 0 -48 20.5z" />
<glyph unicode="&#x2026;" horiz-adv-x="1538" d="M75 142q0 76 17 108q28 54 104 54t107 -54q16 -32 16 -108t-16 -108q-30 -54 -106.5 -54.5t-104.5 54.5q-17 32 -17 108zM620 142q0 76 17 108q28 54 104 54t107 -54q16 -32 16 -108t-16 -108q-30 -54 -106.5 -54.5t-104.5 54.5q-17 32 -17 108zM1165 142q0 76 17 108 q28 54 104 54t107 -54q16 -32 16 -108t-16 -108q-30 -54 -106.5 -54.5t-104.5 54.5q-17 32 -17 108z" />
<glyph unicode="&#x202f;" horiz-adv-x="299" />
<glyph unicode="&#x205f;" horiz-adv-x="374" />
<glyph unicode="&#x20ac;" horiz-adv-x="945" d="M56 395v62q0 26 11.5 37t37.5 11h543q39 0 50.5 -16.5t-3.5 -56.5l-15 -37q-9 -26 -24 -38q-16 -11 -42 -11h-509q-26 0 -37.5 11t-11.5 38zM56 650v62q0 26 11.5 37.5t37.5 11.5h583q39 0 49.5 -17t-2.5 -56l-15 -38q-9 -26 -24.5 -37.5t-41.5 -11.5h-549 q-26 0 -37.5 11.5t-11.5 37.5zM114.5 563.5q0.5 253.5 112.5 400.5q68 86 170.5 132t220.5 46q128 0 246 -58q36 -19 42.5 -42.5t-12.5 -56.5l-22 -46q-19 -36 -42.5 -42t-57.5 12q-68 38 -154 38q-154 0 -237 -115q-69 -97 -69 -268t69 -269q83 -115 237 -115q88 0 154 38 q34 19 57.5 12.5t42.5 -42.5l22 -45q19 -34 12.5 -57.5t-42.5 -40.5q-116 -60 -246 -60q-118 0 -220.5 46t-170.5 132q-113 147 -112.5 400.5z" />
<glyph unicode="&#xe000;" horiz-adv-x="939" d="M0 0z" />
<glyph unicode="&#xfb1d;" horiz-adv-x="623" d="M75 1003v51q0 39 17 56t56 17h245q85 0 120.5 -35.5t35.5 -120.5v-334q0 -39 -17 -56t-57 -17h-50q-39 0 -56.5 16.5t-17.5 56.5v265q0 17 -5.5 22.5t-22.5 5.5h-175q-39 0 -56 17t-17 56zM240 -190q0 43 12 60q21 34 69 34q53 0 73 -34q12 -17 12 -60t-12 -64 q-21 -30 -73 -30q-49 0 -69 30q-11 21 -12 64z" />
<glyph unicode="&#xfb1e;" d="M-269 1308q8 -17 40 -30q111 -45 227.5 -46t232.5 46q32 15 40 30q8 19 -4 49l-6 18q-11 30 -30 40q-21 9 -49 -4q-178 -75 -362 0q-30 11 -51 4q-17 -9 -28 -40l-8 -18q-11 -30 -2 -49z" />
<glyph unicode="&#xfb1f;" horiz-adv-x="1247" d="M75 1003v51q0 39 17 56t56 17h245q85 0 120.5 -35.5t35.5 -120.5v-334q0 -39 -17 -56t-57 -17h-50q-39 0 -56.5 16.5t-17.5 56.5v265q0 17 -5.5 22.5t-22.5 5.5h-175q-39 0 -56 17t-17 56zM417 280q0 -34 14 -48t46 -14h412q34 0 48 14t14 48v19q0 32 -14 46t-48 14h-412 q-32 0 -46 -14t-14 -46v-19zM699 1003v51q0 39 17 56t56 17h245q85 0 120.5 -35.5t35.5 -120.5v-334q0 -39 -17 -56t-57 -17h-50q-39 0 -56.5 16.5t-17.5 56.5v265q0 17 -5.5 22.5t-22.5 5.5h-175q-39 0 -56 17t-17 56z" />
<glyph unicode="&#xfb20;" horiz-adv-x="1112" d="M75 1003v51q0 39 17 56t56 17h173q85 0 120.5 -35.5t35.5 -120.5v-746q0 -28 28 -28q171 0 250 85q38 41 52 104t14 181v335q0 17 -5.5 22.5t-22.5 5.5h-83q-39 0 -56 17t-17 56v51q0 39 17 56t56 17h152q85 0 120.5 -35.5t35.5 -120.5v-415q0 -167 -18 -240 q-28 -111 -102 -184q-79 -79 -190 -109q-86 -23 -227 -23h-321q-39 0 -56.5 17t-17.5 56v51q0 39 17 56t57 17h92q17 0 22.5 6t5.5 22v677q0 17 -5.5 22.5t-22.5 5.5h-104q-39 0 -56 17t-17 56z" />
<glyph unicode="&#xfb29;" horiz-adv-x="924" d="M103 487v50q0 39 17 56.5t57 17.5h169q17 0 22.5 5.5t5.5 22.5v225q0 39 17 56.5t56 17.5h51q39 0 56 -17t17 -57v-225q0 -17 5.5 -22.5t22.5 -5.5h168q39 0 56 -17t17 -57v-50q0 -39 -17 -56.5t-56 -17.5h-590q-39 0 -56.5 17t-17.5 57z" />
<glyph unicode="&#xfb2a;" horiz-adv-x="1392" d="M113 430v541q0 86 35 121q34 36 121 35h103q39 0 56 -16.5t17 -56.5v-51q0 -39 -17 -56t-56 -17h-34q-17 0 -22.5 -5.5t-5.5 -22.5v-483q0 -124 49 -173t173 -49h47q17 0 22.5 6t5.5 22v829q0 39 17 56t56 17h51q39 0 56 -16.5t17 -56.5v-829q0 -17 5.5 -22.5t22.5 -5.5 h47q124 0 173 49t49 173v483q0 17 -5.5 22.5t-22.5 5.5h-34q-39 0 -56 17t-17 56v51q0 39 17 56t56 17h103q86 0 121 -35q36 -36 35 -121v-541q0 -124 -21.5 -201t-75.5 -131q-98 -98 -333 -98h-325q-235 0 -333 98q-54 54 -75.5 131t-21.5 201zM1109 1308q0 43 11 62 q21 32 71 32q53 0 73 -32q12 -19 12 -62t-12 -64q-23 -30 -73 -30q-49 0 -71 30q-11 21 -11 64z" />
<glyph unicode="&#xfb2b;" horiz-adv-x="1392" d="M113 430v541q0 86 35 121q34 36 121 35h103q39 0 56 -16.5t17 -56.5v-51q0 -39 -17 -56t-56 -17h-34q-17 0 -22.5 -5.5t-5.5 -22.5v-483q0 -124 49 -173t173 -49h47q17 0 22.5 6t5.5 22v829q0 39 17 56t56 17h51q39 0 56 -16.5t17 -56.5v-829q0 -17 5.5 -22.5t22.5 -5.5 h47q124 0 173 49t49 173v483q0 17 -5.5 22.5t-22.5 5.5h-34q-39 0 -56 17t-17 56v51q0 39 17 56t56 17h103q86 0 121 -35q36 -36 35 -121v-541q0 -124 -21.5 -201t-75.5 -131q-98 -98 -333 -98h-325q-235 0 -333 98q-54 54 -75.5 131t-21.5 201zM133 1308q0 43 12 62 q21 32 71 32q53 0 73 -32q12 -19 12 -62t-12 -64q-23 -30 -73 -30q-49 0 -71 30q-11 21 -12 64z" />
<glyph unicode="&#xfb2c;" horiz-adv-x="1392" d="M113 430v541q0 86 35 121q34 36 121 35h103q39 0 56 -16.5t17 -56.5v-51q0 -39 -17 -56t-56 -17h-34q-17 0 -22.5 -5.5t-5.5 -22.5v-483q0 -124 49 -173t173 -49h47q17 0 22.5 6t5.5 22v829q0 39 17 56t56 17h51q39 0 56 -16.5t17 -56.5v-829q0 -17 5.5 -22.5t22.5 -5.5 h47q124 0 173 49t49 173v483q0 17 -5.5 22.5t-22.5 5.5h-34q-39 0 -56 17t-17 56v51q0 39 17 56t56 17h103q86 0 121 -35q36 -36 35 -121v-541q0 -124 -21.5 -201t-75.5 -131q-98 -98 -333 -98h-325q-235 0 -333 98q-54 54 -75.5 131t-21.5 201zM862 524v79q0 43 11 60 q21 32 68 32h22q51 0 72 -32q11 -17 11 -60v-79q0 -41 -11 -62q-21 -30 -72 -30h-22q-47 0 -68 30q-11 21 -11 62zM1109 1308q0 43 11 62q21 32 71 32q53 0 73 -32q12 -19 12 -62t-12 -64q-23 -30 -73 -30q-49 0 -71 30q-11 21 -11 64z" />
<glyph unicode="&#xfb2d;" horiz-adv-x="1392" d="M113 430v541q0 86 35 121q34 36 121 35h103q39 0 56 -16.5t17 -56.5v-51q0 -39 -17 -56t-56 -17h-34q-17 0 -22.5 -5.5t-5.5 -22.5v-483q0 -124 49 -173t173 -49h47q17 0 22.5 6t5.5 22v829q0 39 17 56t56 17h51q39 0 56 -16.5t17 -56.5v-829q0 -17 5.5 -22.5t22.5 -5.5 h47q124 0 173 49t49 173v483q0 17 -5.5 22.5t-22.5 5.5h-34q-39 0 -56 17t-17 56v51q0 39 17 56t56 17h103q86 0 121 -35q36 -36 35 -121v-541q0 -124 -21.5 -201t-75.5 -131q-98 -98 -333 -98h-325q-235 0 -333 98q-54 54 -75.5 131t-21.5 201zM133 1308q0 43 12 62 q21 32 71 32q53 0 73 -32q12 -19 12 -62t-12 -64q-23 -30 -73 -30q-49 0 -71 30q-11 21 -12 64zM862 524v79q0 43 11 60q21 32 68 32h22q51 0 72 -32q11 -17 11 -60v-79q0 -41 -11 -62q-21 -30 -72 -30h-22q-47 0 -68 30q-11 21 -11 62z" />
<glyph unicode="&#xfb2e;" horiz-adv-x="1102" d="M94 158v218q0 163 53 250q53 88 146 131q19 9 4 32l-169 243q-24 36 -19 62q13 34 49 33h101q41 0 68 -39l344 -498q17 -24 35 -15q49 30 76 77q34 66 33 190v60q0 17 -5.5 22.5t-22.5 5.5h-49q-39 0 -56 17t-17 56v51q0 39 17 56t56 17h117q85 0 121.5 -36.5 t36.5 -120.5v-173q0 -163 -53 -250q-51 -86 -145 -130q-20 -9 -5 -30l201 -291q21 -30 15 -57q-4 -39 -47 -39h-102q-41 0 -67 38l-374 544q-17 24 -36 15q-49 -30 -75 -77q-34 -66 -34 -189v-106q0 -17 6 -22.5t22 -5.5h49q39 0 56.5 -17t17.5 -56v-51q0 -39 -17 -56 t-57 -17h-116q-85 0 -121.5 36.5t-36.5 121.5zM300 -171v-19q0 -34 14 -48t46 -14h412q34 0 48 14t14 48v19q0 32 -14 46t-48 14h-412q-32 0 -46 -14t-14 -46z" />
<glyph unicode="&#xfb2f;" horiz-adv-x="1102" d="M94 158v218q0 163 53 250q53 88 146 131q19 9 4 32l-169 243q-24 36 -19 62q13 34 49 33h101q41 0 68 -39l344 -498q17 -24 35 -15q49 30 76 77q34 66 33 190v60q0 17 -5.5 22.5t-22.5 5.5h-49q-39 0 -56 17t-17 56v51q0 39 17 56t56 17h117q85 0 121.5 -36.5 t36.5 -120.5v-173q0 -163 -53 -250q-51 -86 -145 -130q-20 -9 -5 -30l201 -291q21 -30 15 -57q-4 -39 -47 -39h-102q-41 0 -67 38l-374 544q-17 24 -36 15q-49 -30 -75 -77q-34 -66 -34 -189v-106q0 -17 6 -22.5t22 -5.5h49q39 0 56.5 -17t17.5 -56v-51q0 -39 -17 -56 t-57 -17h-116q-85 0 -121.5 36.5t-36.5 121.5zM297 -171v-19q0 -34 14 -48t46 -14h113q15 0 19 -4.5t4 -17.5v-137q0 -34 14 -48t48 -14h18q34 0 47 15q15 15 15 47v137q0 13 5 17.5t20 4.5h109q34 0 48 14t14 48v19q0 32 -14 46t-48 14h-412q-32 0 -46 -14t-14 -46z" />
<glyph unicode="&#xfb30;" horiz-adv-x="1102" d="M94 158v218q0 163 53 250q53 88 146 131q19 9 4 32l-169 243q-24 36 -19 62q13 34 49 33h101q41 0 68 -39l344 -498q17 -24 35 -15q49 30 76 77q34 66 33 190v60q0 17 -5.5 22.5t-22.5 5.5h-49q-39 0 -56 17t-17 56v51q0 39 17 56t56 17h117q85 0 121.5 -36.5 t36.5 -120.5v-173q0 -163 -53 -250q-51 -86 -145 -130q-20 -9 -5 -30l201 -291q21 -30 15 -57q-4 -39 -47 -39h-102q-41 0 -67 38l-374 544q-17 24 -36 15q-49 -30 -75 -77q-34 -66 -34 -189v-106q0 -17 6 -22.5t22 -5.5h49q39 0 56.5 -17t17.5 -56v-51q0 -39 -17 -56 t-57 -17h-116q-85 0 -121.5 36.5t-36.5 121.5zM453 227v79q0 43 11 60q21 32 68 32h22q51 0 72 -32q11 -17 11 -60v-79q0 -41 -11 -62q-21 -30 -72 -30h-22q-47 0 -68 30q-11 21 -11 62z" />
<glyph unicode="&#xfb31;" horiz-adv-x="1040" d="M75 73v51q0 39 17 56t56 17h491q17 0 22.5 6t5.5 22v547q0 88 -35 123t-123 35h-319q-39 0 -56.5 17t-17.5 56v51q0 39 17 56t57 17h327q190 0 268.5 -78.5t78.5 -268.5v-555q0 -17 6 -22.5t22 -5.5h38q39 0 56 -17t17 -56v-51q0 -39 -16.5 -56t-56.5 -17h-782 q-39 0 -56 17t-17 56zM314 524v79q0 43 11 60q21 32 68 32h22q51 0 72 -32q11 -17 11 -60v-79q0 -41 -11 -62q-21 -30 -72 -30h-22q-47 0 -68 30q-11 21 -11 62z" />
<glyph unicode="&#xfb32;" horiz-adv-x="787" d="M56 60v51q0 23 8 45q13 17 37 24q173 66 277 190q66 77 95 141q23 49 23 167v224q0 17 -5.5 22.5t-22.5 5.5h-173q-39 0 -56 17t-17 56v51q0 39 17 56t56 17h240q86 0 123 -37q35 -35 35 -120v-897q0 -39 -17 -56t-56 -17h-51q-39 0 -56 17t-17 56v183q0 49 -23 11 q-32 -56 -90 -122q-56 -64 -129.5 -111t-123.5 -47q-39 0 -56.5 17t-17.5 56zM197 577v79q0 43 11 60q21 32 68 32h22q51 0 72 -32q11 -17 11 -60v-79q0 -41 -11 -62q-21 -30 -72 -30h-22q-47 0 -68 30q-11 21 -11 62z" />
<glyph unicode="&#xfb33;" horiz-adv-x="1037" d="M75 1003v51q0 39 17 56t56 17h760q39 0 56 -16.5t17 -56.5v-51q0 -39 -17 -56t-56 -17h-96q-17 0 -22.5 -5.5t-5.5 -22.5v-829q0 -39 -17 -56t-57 -17h-51q-39 0 -56 17t-17 56v829q0 17 -5.5 22.5t-22.5 5.5h-410q-39 0 -56 17t-17 56zM291 524v79q0 43 11 60 q21 32 68 32h22q51 0 72 -32q11 -17 11 -60v-79q0 -41 -11 -62q-21 -30 -72 -30h-22q-47 0 -68 30q-11 21 -11 62z" />
<glyph unicode="&#xfb34;" horiz-adv-x="1080" d="M94 1003v51q0 39 17 56t56 17h481q96 0 157 -16.5t104.5 -60t60 -103.5t16.5 -158v-716q0 -39 -16.5 -56t-56.5 -17h-51q-39 0 -56 17t-17 56v709q0 83 -32 115.5t-116 32.5h-474q-39 0 -56 17t-17 56zM132 73v521q0 39 16.5 56t56.5 17h51q39 0 56 -17t17 -56v-521 q0 -39 -17 -56t-56 -17h-51q-39 0 -56 17t-17 56zM468 524v79q0 43 11 60q21 32 68 32h22q51 0 72 -32q11 -17 11 -60v-79q0 -41 -11 -62q-21 -30 -72 -30h-22q-47 0 -68 30q-11 21 -11 62z" />
<glyph unicode="&#xfb35;" horiz-adv-x="638" d="M75 1003v51q0 39 17 56t56 17h188q115 0 162 -47t47 -161v-846q0 -39 -17 -56t-56 -17h-51q-39 0 -56 17t-17 56v829q0 17 -6 22.5t-23 5.5h-171q-39 0 -56 17t-17 56zM88 524v79q0 43 11 60q21 32 68 32h22q51 0 72 -32q11 -17 11 -60v-79q0 -41 -11 -62 q-21 -30 -72 -30h-22q-47 0 -68 30q-11 21 -11 62z" />
<glyph unicode="&#xfb36;" horiz-adv-x="755" d="M38 524v79q0 43 11 60q21 32 68 32h22q51 0 72 -32q11 -17 11 -60v-79q0 -41 -11 -62q-21 -30 -72 -30h-22q-47 0 -68 30q-11 21 -11 62zM99 1003v51q0 39 17 56t56 17h434q39 0 56.5 -16.5t17.5 -56.5v-51q0 -39 -17 -56t-57 -17h-90q-17 0 -22.5 -5.5t-5.5 -22.5v-829 q0 -39 -17 -56t-56 -17h-51q-39 0 -56 17t-17 56v829q0 17 -5.5 22.5t-22.5 5.5h-91q-39 0 -56 17t-17 56z" />
<glyph unicode="&#xfb38;" horiz-adv-x="1181" d="M75 1003v51q0 39 17 56t56 17h117q85 0 120.5 -35.5t35.5 -120.5v-539q0 -116 32 -165q56 -85 202.5 -85t203.5 85q32 49 32 165v359q0 94 -21 126q-26 39 -73 39q-45 0 -72 -39q-23 -32 -22 -126v-62q0 -39 -17 -56t-57 -17h-50q-39 0 -56.5 17t-17.5 56v86 q0 86 13.5 140t52.5 101q81 94 226 94q68 0 128.5 -25.5t98.5 -70.5q64 -77 64 -255v-395q0 -101 -18 -165t-61 -117q-109 -135 -353 -135q-115 0 -209 36.5t-144 98.5q-43 53 -61 117t-18 165v498q0 17 -6 22.5t-23 5.5h-47q-39 0 -56 17t-17 56zM573 400v79q0 43 11 60 q21 32 68 32h22q51 0 72 -32q11 -17 11 -60v-79q0 -41 -11 -62q-21 -30 -72 -30h-22q-47 0 -68 30q-11 21 -11 62z" />
<glyph unicode="&#xfb39;" horiz-adv-x="623" d="M75 1003v51q0 39 17 56t56 17h245q85 0 120.5 -35.5t35.5 -120.5v-334q0 -39 -17 -56t-57 -17h-50q-39 0 -56.5 16.5t-17.5 56.5v265q0 17 -5.5 22.5t-22.5 5.5h-175q-39 0 -56 17t-17 56zM81 603v79q0 43 11 60q21 32 68 32h22q51 0 72 -32q11 -17 11 -60v-79 q0 -41 -11 -62q-21 -30 -72 -30h-22q-47 0 -68 30q-11 21 -11 62z" />
<glyph unicode="&#xfb3a;" horiz-adv-x="1029" d="M75 1003v51q0 39 17 56t56 17h752q39 0 56 -16.5t17 -56.5v-51q0 -39 -17 -56t-56 -17h-71q-17 0 -23 -5.5t-6 -22.5v-940q0 -17 6 -22.5t23 -5.5h71q39 0 56 -17t17 -56v-51q0 -39 -17 -56t-56 -17h-141q-85 0 -120.5 35.5t-35.5 120.5v1009q0 17 -5.5 22.5t-22.5 5.5 h-427q-39 0 -56 17t-17 56zM303 524v79q0 43 11 60q21 32 68 32h22q51 0 72 -32q11 -17 11 -60v-79q0 -41 -11 -62q-21 -30 -72 -30h-22q-47 0 -68 30q-11 21 -11 62z" />
<glyph unicode="&#xfb3b;" horiz-adv-x="931" d="M75 73v51q0 39 17 56t56 17h237q227 0 267 175q17 75 17 192q0 126 -13 191q-17 88 -66 130q-53 45 -163 45h-269q-39 0 -56 17t-17 56v51q0 39 16.5 56t56.5 17h270q116 0 179 -17q98 -24 158 -99q101 -126 101 -447q0 -327 -120 -448q-75 -75 -188 -99 q-81 -17 -214 -17h-196q-39 0 -56 17t-17 56zM318 524v79q0 43 11 60q21 32 68 32h22q51 0 72 -32q11 -17 11 -60v-79q0 -41 -11 -62q-21 -30 -72 -30h-22q-47 0 -68 30q-11 21 -11 62z" />
<glyph unicode="&#xfb3c;" horiz-adv-x="1039" d="M75 1139v129q0 39 17 56.5t56 17.5h51q39 0 56 -17t17 -57v-112q0 -17 6 -23t23 -6h432q122 0 175 -50q56 -56 56 -175v-105q0 -109 -30 -177q-31 -71 -119 -154l-216 -195q-23 -21 -22 -46q0 -15 5.5 -21.5t20.5 -6.5h38q39 0 56 -17t17 -56v-51q0 -39 -17 -56t-56 -17 h-124q-81 0 -128 45q-39 39 -40 122q0 68 16 109q24 70 90 130l210 191q51 47 76.5 94t25.5 111v28q0 56 -23 79q-21 21 -75 21h-385q-115 0 -162 47t-47 162zM381 674v79q0 43 11 60q21 32 68 32h22q51 0 72 -32q11 -17 11 -60v-79q0 -41 -11 -62q-21 -30 -72 -30h-22 q-47 0 -68 30q-11 21 -11 62z" />
<glyph unicode="&#xfb3e;" horiz-adv-x="1166" d="M75 1003v51q0 39 17 56t56 17h186q56 0 80 -23.5t24 -81.5v-37q0 -21 10 -25t24 17q39 68 111.5 115t160.5 47q163 0 248 -104q45 -56 63 -139.5t18 -213.5v-526q0 -85 -36 -120.5t-120 -35.5h-216q-39 0 -56 17t-17 56v51q0 39 16.5 56t56.5 17h146q17 0 23 6t6 22v496 q0 130 -42 181q-43 52 -126 52q-94 0 -163.5 -78.5t-89.5 -178.5q-17 -71 -17 -169v-455q0 -39 -17 -56t-56 -17h-51q-39 0 -56.5 17t-17.5 56v829q0 17 -5.5 22.5t-22.5 5.5h-64q-39 0 -56 17t-17 56zM577 524v79q0 43 11 60q21 32 68 32h22q51 0 72 -32q11 -17 11 -60v-79 q0 -41 -11 -62q-21 -30 -72 -30h-22q-47 0 -68 30q-11 21 -11 62z" />
<glyph unicode="&#xfb40;" horiz-adv-x="663" d="M75 73v51q0 39 17 56t56 17h196q17 0 22.5 6t5.5 22v677q0 17 -5.5 22.5t-22.5 5.5h-149q-38 0 -54.5 17t-16.5 56v51q0 39 17 56t54 17h218q85 0 120.5 -35.5t35.5 -120.5v-815q0 -85 -35.5 -120.5t-120.5 -35.5h-265q-39 0 -56 17t-17 56zM107 524v79q0 43 11 60 q21 32 68 32h22q51 0 72 -32q11 -17 11 -60v-79q0 -41 -11 -62q-21 -30 -72 -30h-22q-47 0 -68 30q-11 21 -11 62z" />
<glyph unicode="&#xfb41;" horiz-adv-x="1134" d="M75 1003v51q0 39 17 56t56 17h555q186 0 263 -75q39 -43 54 -101.5t21 -161.5v-383q0 -107 -17 -167.5t-58 -114.5q-47 -60 -137.5 -98.5t-199.5 -38.5t-202 38.5t-138 98.5q-41 54 -58 114.5t-17 167.5v496q0 17 -5.5 22.5t-22.5 5.5h-38q-39 0 -56 17t-17 56zM411 453 q0 -126 31 -182q53 -90 186 -91q135 0 186 91q30 56 30 182v331q-6 86 -32 112q-34 34 -117 34h-255q-17 0 -23 -5.5t-6 -22.5v-449zM547 524v79q0 43 11 60q21 32 68 32h22q51 0 72 -32q11 -17 11 -60v-79q0 -41 -11 -62q-21 -30 -72 -30h-22q-47 0 -68 30q-11 21 -11 62z " />
<glyph unicode="&#xfb43;" horiz-adv-x="1018" d="M94 622v297q0 115 47 161.5t162 46.5h417q115 0 161.5 -47t46.5 -161v-957q0 -17 5.5 -22.5t22.5 -5.5h45q39 0 56.5 -17t17.5 -56v-51q0 -39 -17 -56t-57 -17h-114q-85 0 -120.5 35.5t-35.5 120.5v1009q0 17 -5.5 22.5t-22.5 5.5h-384q-17 0 -22.5 -5.5t-5.5 -22.5v-263 q0 -17 5.5 -22.5t22.5 -5.5h74q39 0 56 -17t17 -57v-50q0 -39 -17 -56.5t-56 -17.5h-90q-115 0 -162 47t-47 162zM494 635v79q0 43 11 60q21 32 68 32h23q51 0 71 -32q11 -17 11 -60v-79q0 -41 -11 -62q-21 -30 -71 -30h-23q-47 0 -68 30q-11 21 -11 62z" />
<glyph unicode="&#xfb44;" horiz-adv-x="1044" d="M113 73v51q0 39 17 56t56 17h419q83 0 115.5 33t32.5 116v556q0 17 -5.5 22.5t-22.5 5.5h-387q-17 0 -22.5 -5.5t-5.5 -22.5v-263q0 -17 5.5 -22.5t22.5 -5.5h73q39 0 56.5 -17t17.5 -57v-50q0 -39 -17 -56.5t-57 -17.5h-90q-115 0 -161.5 47t-46.5 162v297 q0 115 47 161.5t161 46.5h421q115 0 162 -47t47 -161v-581q0 -96 -17 -157t-60.5 -104t-104.5 -60t-156 -17h-427q-39 0 -56 17t-17 56zM526 607v79q0 43 11 60q21 32 68 32h23q51 0 71 -32q11 -17 11 -60v-79q0 -41 -11 -62q-21 -30 -71 -30h-23q-47 0 -68 30 q-11 21 -11 62z" />
<glyph unicode="&#xfb46;" horiz-adv-x="1110" d="M75 1003v51q0 39 17 56t56 17h147q88 0 122 -37q36 -32 36 -120v-19q0 -79 16 -125t61 -84l84 -69q19 -17 47 -4q45 21 81 58q77 79 77 156v19q0 17 -5.5 22.5t-22.5 5.5h-86q-39 0 -56.5 17t-17.5 56v51q0 39 17 56t57 17h154q88 0 122 -37q35 -32 35 -120v-19 q0 -137 -47.5 -235t-156.5 -181q-8 -6 -6 -15t9 -15q53 -49 74.5 -69.5t47 -51.5t33 -59t12 -67.5t4.5 -99.5q0 -88 -35 -120q-34 -38 -122 -38h-656q-38 0 -55 17t-17 56v51q0 39 17 56t55 17h573q28 0 28 30q0 56 -84 126l-303 248q-73 66 -102 128t-29 154v19 q0 17 -6 22.5t-23 5.5h-79q-39 0 -56 17t-17 56zM314 321v79q0 43 11 60q21 32 68 32h22q51 0 72 -32q11 -17 11 -60v-79q0 -41 -11 -62q-21 -30 -72 -30h-22q-47 0 -68 30q-11 21 -11 62z" />
<glyph unicode="&#xfb47;" horiz-adv-x="1069" d="M94 1003v51q0 39 17 56t56 17h596q122 0 175 -50q56 -58 56 -175v-105q0 -77 -15 -128q-15 -54 -56 -109l-215 -289q-24 -34 -20 -49q4 -24 30 -25h32q39 0 56 -17t17 -56v-51q0 -39 -17 -56t-56 -17h-124q-83 0 -128 45q-39 39 -40 122q0 45 18 91t34 71.5t54 76.5 l186 259q47 64 47 137v28q0 56 -22 78t-76 22h-532q-39 0 -56 17t-17 56zM158 -190v878q0 39 17 56t56 17h51q39 0 56 -17t17 -56v-878q0 -39 -17 -56t-56 -17h-51q-39 0 -56 17t-17 56zM457 674v79q0 43 11 60q21 32 68 32h22q51 0 72 -32q11 -17 11 -60v-79q0 -41 -11 -62 q-21 -30 -72 -30h-22q-47 0 -68 30q-11 21 -11 62z" />
<glyph unicode="&#xfb48;" horiz-adv-x="978" d="M75 1003v51q0 39 17 56t56 17h399q96 0 157 -16.5t104 -60t60 -103.5t17 -158v-716q0 -39 -17 -56t-56 -17h-51q-39 0 -56 17t-17 56v709q0 83 -32 115.5t-117 32.5h-391q-39 0 -56 17t-17 56zM348 524v79q0 43 11 60q21 32 68 32h22q51 0 72 -32q11 -17 11 -60v-79 q0 -41 -11 -62q-21 -30 -72 -30h-22q-47 0 -68 30q-11 21 -11 62z" />
<glyph unicode="&#xfb49;" horiz-adv-x="1392" d="M113 430v541q0 86 35 121q34 36 121 35h103q39 0 56 -16.5t17 -56.5v-51q0 -39 -17 -56t-56 -17h-34q-17 0 -22.5 -5.5t-5.5 -22.5v-483q0 -124 49 -173t173 -49h47q17 0 22.5 6t5.5 22v829q0 39 17 56t56 17h51q39 0 56 -16.5t17 -56.5v-829q0 -17 5.5 -22.5t22.5 -5.5 h47q124 0 173 49t49 173v483q0 17 -5.5 22.5t-22.5 5.5h-34q-39 0 -56 17t-17 56v51q0 39 17 56t56 17h103q86 0 121 -35q36 -36 35 -121v-541q0 -124 -21.5 -201t-75.5 -131q-98 -98 -333 -98h-325q-235 0 -333 98q-54 54 -75.5 131t-21.5 201zM862 524v79q0 43 11 60 q21 32 68 32h22q51 0 72 -32q11 -17 11 -60v-79q0 -41 -11 -62q-21 -30 -72 -30h-22q-47 0 -68 30q-11 21 -11 62z" />
<glyph unicode="&#xfb4a;" horiz-adv-x="1181" d="M75 73v51q0 39 17 56t56 17h89q17 0 22.5 6t5.5 22v677q0 17 -5.5 22.5t-22.5 5.5h-79q-41 0 -58 17t-17 56v51q0 39 16.5 56t58.5 17h592q96 0 157 -16.5t104 -60t60 -103.5t17 -158v-716q0 -39 -17 -56t-56 -17h-51q-39 0 -56 17t-17 56v709q0 83 -32 115.5t-117 32.5 h-252q-17 0 -22.5 -5.5t-5.5 -22.5v-693q0 -115 -47 -162t-161 -47h-106q-39 0 -56 17t-17 56zM584 524v79q0 43 11 60q21 32 68 32h22q51 0 72 -32q11 -17 11 -60v-79q0 -41 -11 -62q-21 -30 -72 -30h-22q-47 0 -68 30q-11 21 -11 62z" />
<glyph unicode="&#xfb4b;" horiz-adv-x="638" d="M75 1003v51q0 39 17 56t56 17h188q115 0 162 -47t47 -161v-846q0 -39 -17 -56t-56 -17h-51q-39 0 -56 17t-17 56v829q0 17 -6 22.5t-23 5.5h-171q-39 0 -56 17t-17 56zM233 1308q0 43 12 62q21 32 69 32q53 0 73 -32q12 -19 12 -62t-12 -64q-21 -30 -73 -30q-49 0 -69 30 q-11 21 -12 64z" />
<glyph unicode="&#xfb4c;" horiz-adv-x="1040" d="M75 73v51q0 39 17 56t56 17h491q17 0 22.5 6t5.5 22v547q0 88 -35 123t-123 35h-319q-39 0 -56.5 17t-17.5 56v51q0 39 17 56t57 17h327q190 0 268.5 -78.5t78.5 -268.5v-555q0 -17 6 -22.5t22 -5.5h38q39 0 56 -17t17 -56v-51q0 -39 -16.5 -56t-56.5 -17h-782 q-39 0 -56 17t-17 56zM203 1298q0 -32 14 -46t46 -14h412q34 0 48 14t14 46v19q0 34 -14 48t-48 14h-412q-32 0 -46 -14t-14 -48v-19z" />
<glyph unicode="&#xfb4d;" horiz-adv-x="931" d="M75 73v51q0 39 17 56t56 17h237q227 0 267 175q17 75 17 192q0 126 -13 191q-17 88 -66 130q-53 45 -163 45h-269q-39 0 -56 17t-17 56v51q0 39 16.5 56t56.5 17h270q116 0 179 -17q98 -24 158 -99q101 -126 101 -447q0 -327 -120 -448q-75 -75 -188 -99 q-81 -17 -214 -17h-196q-39 0 -56 17t-17 56zM158 1298q0 -32 14 -46t46 -14h412q34 0 48 14t14 46v19q0 34 -14 48t-48 14h-412q-32 0 -46 -14t-14 -48v-19z" />
<glyph unicode="&#xfb4e;" horiz-adv-x="1044" d="M113 73v51q0 39 17 56t56 17h419q83 0 115.5 33t32.5 116v556q0 17 -5.5 22.5t-22.5 5.5h-387q-17 0 -22.5 -5.5t-5.5 -22.5v-263q0 -17 5.5 -22.5t22.5 -5.5h143q39 0 56 -17t17 -57v-50q0 -39 -17 -56.5t-56 -17.5h-160q-115 0 -161.5 47t-46.5 162v297q0 115 47 161.5 t161 46.5h421q115 0 162 -47t47 -161v-581q0 -96 -17 -157t-60.5 -104t-104.5 -60t-156 -17h-427q-39 0 -56 17t-17 56zM259 1298q0 -32 14 -46t46 -14h412q34 0 48 14t14 46v19q0 34 -14 48t-48 14h-412q-32 0 -46 -14t-14 -48v-19z" />
<glyph unicode="&#xfb4f;" horiz-adv-x="1125" d="M94 913v355q0 39 17 56.5t56 17.5h51q39 0 56 -17t17 -57v-338q0 -54 28 -84l284 -301q19 -19 36 -13q128 45 169 120q34 64 34 190v60q0 17 -6 22.5t-24 5.5h-49q-38 0 -55 17t-17 56v51q0 39 17 56t55 17h116q86 0 122 -36.5t36 -120.5v-173q0 -162 -52 -250 q-62 -103 -201 -156q-24 -9 -6 -30l233 -245q17 -17 29 -40t10 -37q-2 -39 -43 -39h-120q-38 0 -72 36l-644 676q-77 81 -77 201z" />
</font>
</defs>
</svg>
